<?xml version="1.0" encoding="utf-8"?>
<!-- Generator: Adobe Illustrator 21.1.0, SVG Export Plug-In . SVG Version: 6.00 Build 0)  -->
<svg version="1.1" id="Layer_1" xmlns="http://www.w3.org/2000/svg" xmlns:xlink="http://www.w3.org/1999/xlink" x="0px" y="0px"
	 viewBox="0 0 273 76" style="enable-background:new 0 0 273 76;" xml:space="preserve">
<style type="text/css">
	.st0{fill:none;stroke:#000000;stroke-width:5;stroke-miterlimit:10;}
	.st1{fill:none;stroke:#000000;stroke-width:3;stroke-miterlimit:10;}
	.st2{fill:#FFFFFF;}
	.st3{fill:none;stroke:#000000;stroke-width:25;stroke-miterlimit:10;}
	.st4{stroke:#000000;stroke-width:10;stroke-miterlimit:10;}
</style>
<g>
	<g>
		<path d="M117,32.7l-1.9-0.2c-1.6,0-2.6,0.7-3.2,2.1v14.5h-5.8v-22h5.4l0.2,2.4c0.9-1.9,2.2-2.8,3.8-2.8c0.7,0,1.2,0.1,1.6,0.3
			L117,32.7z"/>
		<path d="M128.4,49.5c-3,0-5.3-0.9-6.9-2.6c-1.7-1.8-2.5-4.3-2.5-7.6v-1.7c0-3.5,0.8-6.1,2.3-8c1.5-1.9,3.7-2.8,6.5-2.8
			c2.8,0,4.8,0.9,6.2,2.6c1.4,1.8,2.1,4.4,2.1,7.8v2.8h-11.4c0.1,1.6,0.4,2.8,1.1,3.6s1.6,1.1,2.9,1.1c1.9,0,3.5-0.7,4.8-2l2.3,3.5
			c-0.7,1-1.7,1.8-3.1,2.4S130,49.5,128.4,49.5z M124.8,36h5.8v-0.5c0-1.3-0.2-2.3-0.7-3c-0.4-0.7-1.1-1-2.1-1c-1,0-1.7,0.4-2.2,1.1
			C125.2,33.3,124.9,34.5,124.8,36z"/>
		<path d="M147.4,44.8c1.7,0,2.5-1.1,2.5-3.3h5.4c0,2.4-0.8,4.3-2.2,5.8c-1.4,1.5-3.3,2.2-5.6,2.2c-2.8,0-5-0.9-6.5-2.6
			c-1.5-1.8-2.2-4.4-2.3-7.8v-1.7c0-3.5,0.7-6.1,2.2-7.9c1.5-1.8,3.6-2.7,6.5-2.7c2.4,0,4.3,0.7,5.7,2.2c1.4,1.5,2.1,3.6,2.1,6.4
			H150c0-1.2-0.2-2.2-0.6-2.8c-0.4-0.7-1-1-2-1c-1,0-1.7,0.4-2.2,1.1s-0.7,2.1-0.7,4.1V39c0,1.8,0.1,3,0.3,3.8
			c0.2,0.7,0.5,1.2,0.9,1.6C146.1,44.6,146.7,44.8,147.4,44.8z"/>
		<path d="M158.6,21.5c0-0.9,0.3-1.6,0.9-2.2c0.6-0.6,1.3-0.9,2.3-0.9s1.7,0.3,2.3,0.9c0.6,0.6,0.9,1.3,0.9,2.2
			c0,0.9-0.3,1.6-0.8,2.2c-0.6,0.6-1.3,0.9-2.3,0.9s-1.7-0.3-2.3-0.9C158.9,23.1,158.6,22.3,158.6,21.5z M164.7,49.1h-5.8v-22h5.8
			V49.1z"/>
		<path d="M186.3,38.8c0,3.5-0.6,6.1-1.8,7.9c-1.2,1.8-3,2.8-5.3,2.8c-1.8,0-3.2-0.7-4.3-2.2v10.2h-5.8V27.1h5.3l0.2,2
			c1.1-1.6,2.6-2.4,4.5-2.4c2.3,0,4.1,0.9,5.3,2.6c1.2,1.7,1.8,4.3,1.8,7.8V38.8z M180.5,37.4c0-2.1-0.2-3.6-0.7-4.5
			c-0.5-0.9-1.3-1.3-2.4-1.3c-1.2,0-2,0.5-2.6,1.5v10.3c0.5,0.9,1.4,1.4,2.6,1.4c1.1,0,1.9-0.5,2.4-1.4c0.4-1,0.7-2.5,0.7-4.5V37.4z
			"/>
		<path d="M200.1,38.9h-9.9v-4.8h9.9V38.9z"/>
		<path d="M225.2,39.3c-0.1,3.4-1.1,5.9-2.8,7.7c-1.7,1.7-4.2,2.6-7.4,2.6c-3.3,0-5.9-1.1-7.7-3.3c-1.8-2.2-2.7-5.3-2.7-9.4v-5
			c0-4.1,0.9-7.2,2.8-9.4c1.8-2.2,4.4-3.3,7.7-3.3c3.2,0,5.7,0.9,7.3,2.7c1.7,1.8,2.6,4.4,2.9,7.8h-6c-0.1-2.1-0.4-3.5-1-4.3
			c-0.6-0.8-1.7-1.2-3.2-1.2c-1.6,0-2.7,0.6-3.4,1.7c-0.7,1.1-1,3-1.1,5.5v5.6c0,2.9,0.3,5,1,6.1c0.7,1.1,1.8,1.6,3.4,1.6
			c1.6,0,2.7-0.4,3.3-1.1c0.6-0.8,0.9-2.2,1-4.2H225.2z"/>
		<path d="M239,49.1c-0.2-0.3-0.3-0.9-0.5-1.7c-1,1.4-2.4,2.1-4.2,2.1c-1.8,0-3.4-0.6-4.6-1.8S228,44.9,228,43
			c0-2.3,0.7-4.1,2.2-5.3c1.5-1.3,3.6-1.9,6.4-1.9h1.7v-1.8c0-1-0.2-1.7-0.5-2.1c-0.3-0.4-0.8-0.6-1.5-0.6c-1.4,0-2.2,0.8-2.2,2.5
			h-5.8c0-2,0.8-3.7,2.3-5s3.5-2,5.8-2c2.4,0,4.3,0.6,5.6,1.9c1.3,1.3,2,3,2,5.4v10.3c0,1.9,0.3,3.4,0.8,4.5v0.3H239z M235.6,45
			c0.6,0,1.2-0.1,1.6-0.4c0.4-0.3,0.8-0.6,1-0.9v-4.6h-1.4c-1,0-1.7,0.3-2.3,0.9c-0.6,0.6-0.8,1.5-0.8,2.5
			C233.7,44.2,234.4,45,235.6,45z"/>
		<path d="M259,32.7l-1.9-0.2c-1.6,0-2.6,0.7-3.2,2.1v14.5h-5.8v-22h5.4l0.2,2.4c0.9-1.9,2.2-2.8,3.8-2.8c0.7,0,1.2,0.1,1.6,0.3
			L259,32.7z"/>
		<path d="M269.7,21.7v5.4h2.9v4.3h-2.9v10.9c0,0.9,0.1,1.5,0.4,1.8c0.2,0.3,0.7,0.5,1.4,0.5c0.6,0,1,0,1.4-0.1l0,4.5
			c-1,0.4-2,0.5-3.2,0.5c-3.7,0-5.6-2.1-5.6-6.4V31.5h-2.5v-4.3h2.5v-5.4H269.7z"/>
	</g>
	<g>
		<g id="XMLID_5_">
			<g>
				<g>
					<g>
						<circle cx="39.6" cy="16.6" r="2.6"/>
					</g>
				</g>
				<g>
					<g>
						<circle cx="39.6" cy="26.2" r="2.6"/>
					</g>
				</g>
			</g>
			<g>
				<g>
					<g>
						<path d="M34.2,75.1l-24-22.7h76.5L34.2,75.1z M25.1,58.4l10.3,9.7l22.4-9.7H25.1z"/>
					</g>
				</g>
				<g>
					<g>
						<rect x="0.2" y="52.4" width="17.4" height="6"/>
					</g>
				</g>
				<g>
					<g>
						<polygon points="70.9,41.3 32.9,40.9 15.9,6.9 0.5,6.9 0.5,0.9 19.6,0.9 36.6,35 67.2,35.3 81.5,6.9 34.8,6.9 34.8,0.9 
							91.2,0.9 						"/>
					</g>
				</g>
				<g>
					<g>
						<rect x="45" y="15.4" width="22.2" height="2.4"/>
					</g>
				</g>
				<g>
					<g>
						<rect x="45" y="25" width="22.2" height="2.4"/>
					</g>
				</g>
			</g>
		</g>
	</g>
</g>
</svg>
