<?xml version="1.0" encoding="utf-8"?>
<!-- Generator: Adobe Illustrator 21.1.0, SVG Export Plug-In . SVG Version: 6.00 Build 0)  -->
<svg version="1.1" id="Layer_1" xmlns="http://www.w3.org/2000/svg" xmlns:xlink="http://www.w3.org/1999/xlink" x="0px" y="0px"
	 viewBox="0 0 273 76" style="enable-background:new 0 0 273 76;" xml:space="preserve">
<style type="text/css">
	.st0{fill:#545456;}
	.st1{fill:none;stroke:#000000;stroke-width:5;stroke-miterlimit:10;}
	.st2{fill:none;stroke:#000000;stroke-width:3;stroke-miterlimit:10;}
	.st3{fill:#FFFFFF;}
	.st4{fill:none;stroke:#000000;stroke-width:25;stroke-miterlimit:10;}
	.st5{stroke:#000000;stroke-width:10;stroke-miterlimit:10;}
</style>
<g>
	<g id="XMLID_5_">
		<g>
			<g>
				<g>
					<circle cx="39.6" cy="16.6" r="2.6"/>
				</g>
			</g>
			<g>
				<g>
					<circle cx="39.6" cy="26.2" r="2.6"/>
				</g>
			</g>
		</g>
		<g>
			<g>
				<g>
					<g>
						<path d="M37.3,75.1l-24-22.7h76.5L37.3,75.1z M28.2,58.4l10.3,9.7l22.4-9.7H28.2z"/>
					</g>
				</g>
				<g>
					<g>
						<rect x="3.3" y="52.4" width="17.4" height="6"/>
					</g>
				</g>
			</g>
			<g>
				<g>
					<polygon points="71.5,41.3 33.5,40.9 16.5,6.9 1.1,6.9 1.1,0.9 20.2,0.9 37.2,35 67.9,35.3 82.2,6.9 35.5,6.9 35.5,0.9 
						91.9,0.9 					"/>
				</g>
			</g>
			<g>
				<g>
					<rect x="45" y="15.4" width="22.2" height="2.4"/>
				</g>
			</g>
			<g>
				<g>
					<rect x="45" y="25" width="22.2" height="2.4"/>
				</g>
			</g>
		</g>
	</g>
</g>
<g>
	<path d="M117.1,32.8l-1.9-0.2c-1.5,0-2.6,0.7-3.1,2v14.1h-5.6V27.5h5.3l0.2,2.3c0.9-1.8,2.1-2.7,3.7-2.7c0.6,0,1.1,0.1,1.5,0.3
		L117.1,32.8z"/>
	<path d="M128.2,49.2c-2.9,0-5.1-0.9-6.7-2.6c-1.6-1.7-2.4-4.2-2.4-7.3v-1.7c0-3.4,0.7-6,2.2-7.8s3.6-2.7,6.3-2.7
		c2.7,0,4.7,0.9,6.1,2.6c1.4,1.7,2,4.3,2.1,7.6V40h-11.1c0.1,1.6,0.4,2.7,1,3.5c0.6,0.7,1.6,1.1,2.9,1.1c1.9,0,3.4-0.6,4.7-1.9
		l2.2,3.4c-0.7,0.9-1.7,1.7-3,2.3C131.1,48.9,129.7,49.2,128.2,49.2z M124.7,36.1h5.6v-0.5c0-1.3-0.2-2.2-0.6-2.9
		c-0.4-0.7-1.1-1-2.1-1s-1.7,0.3-2.1,1C125,33.4,124.7,34.6,124.7,36.1z"/>
	<path d="M146.6,44.6c1.6,0,2.4-1.1,2.5-3.2h5.3c0,2.3-0.7,4.2-2.2,5.6s-3.2,2.2-5.4,2.2c-2.8,0-4.8-0.9-6.3-2.6
		c-1.4-1.7-2.2-4.2-2.2-7.6v-1.7c0-3.4,0.7-5.9,2.1-7.7c1.4-1.8,3.5-2.6,6.3-2.6c2.4,0,4.2,0.7,5.6,2.2c1.4,1.5,2,3.5,2.1,6.2h-5.3
		c0-1.2-0.2-2.1-0.6-2.8s-1-1-1.9-1c-1,0-1.7,0.3-2.1,1c-0.4,0.7-0.6,2-0.7,4v2.2c0,1.7,0.1,3,0.3,3.6c0.2,0.7,0.5,1.2,0.8,1.5
		C145.3,44.4,145.9,44.6,146.6,44.6z"/>
	<path d="M157.5,21.9c0-0.9,0.3-1.6,0.8-2.1s1.3-0.8,2.2-0.8s1.7,0.3,2.2,0.8c0.6,0.6,0.8,1.3,0.8,2.1c0,0.9-0.3,1.6-0.8,2.1
		c-0.5,0.6-1.3,0.8-2.2,0.8c-0.9,0-1.7-0.3-2.2-0.8C157.8,23.5,157.5,22.8,157.5,21.9z M163.3,48.8h-5.6V27.5h5.6V48.8z"/>
	<path d="M184.3,38.8c0,3.4-0.6,5.9-1.7,7.7c-1.2,1.8-2.9,2.7-5.1,2.7c-1.7,0-3.1-0.7-4.2-2.1V57h-5.6V27.5h5.2l0.2,2
		c1.1-1.6,2.5-2.3,4.4-2.3c2.3,0,4,0.8,5.1,2.5c1.2,1.7,1.7,4.2,1.8,7.6V38.8z M178.7,37.4c0-2.1-0.2-3.5-0.7-4.4
		c-0.5-0.9-1.2-1.3-2.3-1.3c-1.1,0-2,0.5-2.5,1.4v10c0.5,0.9,1.3,1.4,2.5,1.4c1.1,0,1.9-0.5,2.3-1.4s0.6-2.4,0.6-4.4V37.4z"/>
	<path d="M196.3,49.2c-2.9,0-5.1-0.9-6.7-2.6c-1.6-1.7-2.4-4.2-2.4-7.3v-1.7c0-3.4,0.7-6,2.2-7.8c1.5-1.8,3.6-2.7,6.3-2.7
		c2.7,0,4.7,0.9,6.1,2.6c1.4,1.7,2,4.3,2.1,7.6V40h-11.1c0.1,1.6,0.4,2.7,1,3.5c0.6,0.7,1.6,1.1,2.9,1.1c1.9,0,3.4-0.6,4.7-1.9
		l2.2,3.4c-0.7,0.9-1.7,1.7-3,2.3C199.3,48.9,197.8,49.2,196.3,49.2z M192.8,36.1h5.6v-0.5c0-1.3-0.2-2.2-0.6-2.9
		c-0.4-0.7-1.1-1-2.1-1c-1,0-1.7,0.3-2.1,1C193.1,33.4,192.9,34.6,192.8,36.1z"/>
	<path d="M226.8,39.2c-0.1,3.3-1.1,5.8-2.8,7.4s-4.1,2.5-7.2,2.5c-3.3,0-5.7-1.1-7.5-3.2s-2.6-5.2-2.6-9.1V32c0-3.9,0.9-7,2.7-9.1
		c1.8-2.1,4.3-3.2,7.5-3.2c3.1,0,5.5,0.9,7.1,2.6c1.6,1.8,2.5,4.3,2.8,7.5H221c-0.1-2-0.4-3.4-0.9-4.2c-0.6-0.8-1.6-1.2-3.1-1.2
		c-1.6,0-2.7,0.5-3.3,1.6c-0.6,1.1-1,2.9-1,5.4v5.4c0,2.9,0.3,4.8,1,5.9c0.6,1.1,1.7,1.6,3.3,1.6c1.5,0,2.6-0.4,3.2-1.1
		c0.6-0.7,0.9-2.1,1-4H226.8z"/>
	<path d="M240.2,48.8c-0.2-0.3-0.3-0.9-0.5-1.7c-1,1.4-2.4,2.1-4.1,2.1c-1.8,0-3.3-0.6-4.5-1.8c-1.2-1.2-1.8-2.7-1.8-4.6
		c0-2.2,0.7-4,2.1-5.2c1.4-1.2,3.5-1.8,6.2-1.9h1.7v-1.7c0-1-0.2-1.6-0.5-2c-0.3-0.4-0.8-0.6-1.4-0.6c-1.4,0-2.1,0.8-2.1,2.4h-5.6
		c0-2,0.7-3.6,2.2-4.9s3.4-1.9,5.6-1.9c2.3,0,4.2,0.6,5.4,1.8s1.9,3,1.9,5.2v10c0,1.8,0.3,3.3,0.8,4.3v0.3H240.2z M236.9,44.8
		c0.6,0,1.1-0.1,1.6-0.4c0.4-0.3,0.8-0.5,1-0.9v-4.4h-1.3c-0.9,0-1.7,0.3-2.2,0.9s-0.8,1.4-0.8,2.4C235.1,44,235.7,44.8,236.9,44.8z
		"/>
	<path d="M259.7,32.8l-1.9-0.2c-1.5,0-2.6,0.7-3.1,2v14.1h-5.6V27.5h5.3l0.2,2.3c0.9-1.8,2.1-2.7,3.7-2.7c0.6,0,1.1,0.1,1.5,0.3
		L259.7,32.8z"/>
	<path d="M270,22.2v5.3h2.9v4.2H270v10.6c0,0.8,0.1,1.4,0.3,1.7c0.2,0.3,0.7,0.5,1.3,0.5c0.5,0,1,0,1.3-0.1l0,4.3
		c-0.9,0.4-2,0.5-3.1,0.5c-3.6,0-5.4-2.1-5.5-6.2V31.6h-2.5v-4.2h2.5v-5.3H270z"/>
</g>
</svg>
