<svg id="Layer_1" data-name="Layer 1" xmlns="http://www.w3.org/2000/svg" viewBox="0 0 273 76"><title>recipcart</title><g id="_Group_" data-name="&lt;Group&gt;"><circle cx="39.56" cy="16.63" r="2.62"/><circle cx="39.56" cy="26.17" r="2.62"/><path d="M37.26,75.11l-24-22.71H89.69ZM28.21,58.36,38.5,68.07l22.44-9.72Z"/><rect x="3.31" y="52.4" width="17.41" height="5.96"/><polygon points="71.52 41.33 33.51 40.93 16.53 6.86 1.12 6.86 1.12 0.9 20.22 0.9 37.22 35.01 67.87 35.33 82.21 6.86 35.45 6.86 35.45 0.9 91.88 0.9 71.52 41.33"/><rect x="45.05" y="15.44" width="22.17" height="2.38"/><rect x="45.05" y="24.98" width="22.17" height="2.38"/></g><path d="M117.06,32.85l-1.86-.16a3,3,0,0,0-3.1,2V48.82H106.5V27.46h5.27l.16,2.31q1.32-2.7,3.65-2.7a3.91,3.91,0,0,1,1.54.26Z"/><path d="M128.17,49.21a8.76,8.76,0,0,1-6.71-2.57q-2.41-2.57-2.41-7.34v-1.7q0-5.05,2.21-7.8a7.67,7.67,0,0,1,6.34-2.74,7.26,7.26,0,0,1,6.06,2.57q2,2.57,2.07,7.62V40H124.62a5.81,5.81,0,0,0,1,3.48,3.54,3.54,0,0,0,2.86,1.1,6.28,6.28,0,0,0,4.68-1.91L135.4,46a7.22,7.22,0,0,1-3,2.3A10.23,10.23,0,0,1,128.17,49.21Zm-3.51-13.11h5.59v-.51a6,6,0,0,0-.63-2.9,2.2,2.2,0,0,0-2.05-1,2.32,2.32,0,0,0-2.12,1A7.2,7.2,0,0,0,124.66,36.11Z"/><path d="M146.61,44.57q2.43,0,2.47-3.16h5.25a7.85,7.85,0,0,1-2.15,5.65,7.3,7.3,0,0,1-5.45,2.15,7.79,7.79,0,0,1-6.3-2.57q-2.17-2.57-2.21-7.56v-1.7q0-5,2.14-7.68a7.66,7.66,0,0,1,6.33-2.65,7.24,7.24,0,0,1,5.57,2.18,8.87,8.87,0,0,1,2.07,6.19h-5.25a5.6,5.6,0,0,0-.59-2.76,2,2,0,0,0-1.89-1,2.26,2.26,0,0,0-2.09,1,8.84,8.84,0,0,0-.67,4v2.17a17.43,17.43,0,0,0,.26,3.64,2.74,2.74,0,0,0,.85,1.52A2.59,2.59,0,0,0,146.61,44.57Z"/><path d="M157.49,21.93a2.89,2.89,0,0,1,.83-2.13,3.36,3.36,0,0,1,4.42,0,2.89,2.89,0,0,1,.83,2.13,3,3,0,1,1-6.08,0Zm5.86,26.88h-5.61V27.46h5.61Z"/><path d="M184.31,38.81q0,5-1.73,7.72a5.72,5.72,0,0,1-5.14,2.68,5,5,0,0,1-4.18-2.11V57h-5.59V27.46h5.17l.2,2a5,5,0,0,1,4.36-2.35,5.85,5.85,0,0,1,5.14,2.49q1.73,2.49,1.77,7.62Zm-5.57-1.4a10.08,10.08,0,0,0-.68-4.38,2.39,2.39,0,0,0-2.3-1.28,2.66,2.66,0,0,0-2.51,1.44v10a2.66,2.66,0,0,0,2.55,1.38,2.32,2.32,0,0,0,2.3-1.4,11.09,11.09,0,0,0,.64-4.36Z"/><path d="M196.31,49.21a8.76,8.76,0,0,1-6.71-2.57q-2.41-2.57-2.41-7.34v-1.7q0-5.05,2.21-7.8a7.67,7.67,0,0,1,6.34-2.74,7.26,7.26,0,0,1,6.06,2.57q2,2.57,2.07,7.62V40H192.76a5.81,5.81,0,0,0,1,3.48,3.54,3.54,0,0,0,2.86,1.1,6.28,6.28,0,0,0,4.68-1.91L203.54,46a7.22,7.22,0,0,1-3,2.3A10.23,10.23,0,0,1,196.31,49.21ZM192.8,36.11h5.59v-.51a6,6,0,0,0-.63-2.9,2.2,2.2,0,0,0-2.05-1,2.32,2.32,0,0,0-2.12,1A7.2,7.2,0,0,0,192.8,36.11Z"/><path d="M226.79,39.24q-.22,4.92-2.76,7.44t-7.19,2.53A9.05,9.05,0,0,1,209.37,46q-2.6-3.21-2.6-9.15V32q0-5.92,2.68-9.13a9.2,9.2,0,0,1,7.46-3.21q4.7,0,7.14,2.63t2.77,7.54H221a7.74,7.74,0,0,0-.94-4.19,3.7,3.7,0,0,0-3.15-1.15,3.52,3.52,0,0,0-3.3,1.63,11.39,11.39,0,0,0-1,5.36v5.43q0,4.28,1,5.88a3.52,3.52,0,0,0,3.29,1.6A3.8,3.8,0,0,0,220,43.28a7.35,7.35,0,0,0,1-4Z"/><path d="M240.23,48.82a7.81,7.81,0,0,1-.47-1.66,4.77,4.77,0,0,1-4.07,2.05,6,6,0,0,1-4.45-1.78,6.24,6.24,0,0,1-1.77-4.6,6.47,6.47,0,0,1,2.14-5.19,9.37,9.37,0,0,1,6.17-1.88h1.7V34.05a3.22,3.22,0,0,0-.49-2,1.77,1.77,0,0,0-1.44-.59q-2.09,0-2.09,2.45h-5.59A6.18,6.18,0,0,1,232.09,29a8.27,8.27,0,0,1,5.62-1.92,7.59,7.59,0,0,1,5.44,1.83,6.85,6.85,0,0,1,1.92,5.22v10a10.51,10.51,0,0,0,.79,4.32v.34Zm-3.3-4a3.12,3.12,0,0,0,1.58-.38,2.66,2.66,0,0,0,1-.89V39.13h-1.34a2.87,2.87,0,0,0-2.24.91,3.49,3.49,0,0,0-.82,2.43Q235.08,44.83,236.94,44.83Z"/><path d="M259.66,32.85l-1.86-.16a3,3,0,0,0-3.1,2V48.82H249.1V27.46h5.27l.16,2.31q1.32-2.7,3.65-2.7a3.91,3.91,0,0,1,1.54.26Z"/><path d="M270,22.21v5.25h2.86v4.18H270V42.26a3.13,3.13,0,0,0,.35,1.74,1.56,1.56,0,0,0,1.33.47,5.22,5.22,0,0,0,1.32-.14l0,4.34a8.7,8.7,0,0,1-3.08.53q-5.41,0-5.47-6.21V31.64h-2.47V27.46h2.47V22.21Z"/></svg>